<svg width="24" height="25" viewBox="0 0 24 25" fill="none" xmlns="http://www.w3.org/2000/svg">
<path d="M12.0001 2.5H8.67004C6.83004 2.5 5.34009 3.98999 5.34009 5.82999C5.34009 7.66999 6.83004 9.16 8.67004 9.16H12.0001V2.5Z" fill="#F05454"/>
<path d="M12.0001 9.16992H8.67004C6.83004 9.16992 5.34009 10.6599 5.34009 12.4999C5.34009 14.3399 6.83004 15.8299 8.67004 15.8299H12.0001V9.16992Z" fill="#F05454"/>
<path d="M12.0001 15.8301H8.67004C6.83004 15.8301 5.34009 17.3201 5.34009 19.1601C5.34009 21.0001 6.83004 22.4901 8.67004 22.4901C10.51 22.4901 12.0001 21.0001 12.0001 19.1601V15.8301Z" fill="#F05454"/>
<path d="M12 2.5H15.33C17.17 2.5 18.66 3.98999 18.66 5.82999C18.66 7.66999 17.17 9.16 15.33 9.16H12V2.5Z" fill="#F05454"/>
<path d="M15.5 9C17.434 9 19 10.5661 19 12.5C19 14.4339 17.434 16 15.5 16C13.5661 16 12 14.4339 12 12.5C12 10.5661 13.5661 9 15.5 9Z" fill="#F05454"/>
</svg>
