<svg width="24" height="25" viewBox="0 0 24 25" fill="none" xmlns="http://www.w3.org/2000/svg">
<path d="M12 2C5.92525 2 1 6.77499 1 12.6644C1 17.6616 4.54933 21.8429 9.33433 23C9.283 22.856 9.25 22.689 9.25 22.4819V20.6592C8.80358 20.6592 8.05558 20.6592 7.86767 20.6592C7.11508 20.6592 6.44592 20.3455 6.12142 19.7625C5.76117 19.1146 5.69883 18.1237 4.806 17.5176C4.54108 17.3159 4.74275 17.0857 5.048 17.1168C5.61175 17.2714 6.07925 17.6465 6.51925 18.2028C6.95742 18.76 7.16367 18.8862 7.98225 18.8862C8.37917 18.8862 8.97317 18.864 9.53233 18.7787C9.833 18.0384 10.3527 17.3567 10.988 17.035C7.325 16.6698 5.57692 14.903 5.57692 12.5044C5.57692 11.4718 6.03067 10.4729 6.80158 9.63127C6.54858 8.7959 6.2305 7.09226 6.89875 6.4435C8.54692 6.4435 9.54333 7.47973 9.78258 7.75967C10.6039 7.48684 11.5059 7.3322 12.4538 7.3322C13.4034 7.3322 14.3091 7.48684 15.1322 7.76145C15.3688 7.48328 16.3661 6.4435 18.0179 6.4435C18.6889 7.09314 18.3672 8.80389 18.1114 9.6375C18.8778 10.4773 19.3288 11.4736 19.3288 12.5044C19.3288 14.9013 17.5834 16.6671 13.9259 17.0342C14.9324 17.5434 15.6667 18.9742 15.6667 20.0522V22.4819C15.6667 22.5743 15.6456 22.641 15.6346 22.7201C19.9209 21.2635 23 17.3176 23 12.6644C23 6.77499 18.0748 2 12 2Z" fill="#F05454"/>
</svg>
