<svg width="40" height="40" viewBox="0 0 40 40" fill="none" xmlns="http://www.w3.org/2000/svg">
<path d="M7.49989 16.6665C7.49989 15.9998 9.72211 8.88873 11.6666 6.6665C14.9999 7.49984 30.1666 8.33317 30.8332 8.33317C31.4999 8.33317 31.111 15.5554 34.1666 17.4998L29.9997 34.9998C29.9997 34.9998 26.6664 37.4998 20.833 37.4998H14.9997L7.49968 31.6665C4.7219 27.4998 7.49989 17.3332 7.49989 16.6665Z" fill="#F5F5F5"/>
<path d="M20 2.5C9.87541 2.5 1.66666 10.4583 1.66666 20.274C1.66666 28.6026 7.58221 35.5715 15.5572 37.5C15.4717 37.2601 15.4167 36.9816 15.4167 36.6365V33.5986C14.6726 33.5986 13.426 33.5986 13.1128 33.5986C11.8585 33.5986 10.7432 33.0758 10.2024 32.1041C9.60193 31.0243 9.49804 29.3728 8.00999 28.3627C7.56846 28.0265 7.90457 27.6428 8.41332 27.6947C9.35291 27.9524 10.1321 28.5774 10.8654 29.5047C11.5957 30.4333 11.9394 30.6437 13.3037 30.6437C13.9653 30.6437 14.9553 30.6066 15.8872 30.4645C16.3883 29.2306 17.2546 28.0946 18.3133 27.5584C12.2083 26.9496 9.29485 24.0051 9.29485 20.0074C9.29485 18.2863 10.0511 16.6215 11.336 15.2188C10.9143 13.8265 10.3842 10.9871 11.4979 9.90584C14.2449 9.90584 15.9055 11.6329 16.3043 12.0995C17.6732 11.6447 19.1765 11.387 20.7562 11.387C22.339 11.387 23.8485 11.6447 25.2204 12.1024C25.6146 11.6388 27.2768 9.90584 30.0299 9.90584C31.1482 10.9886 30.6119 13.8398 30.1857 15.2292C31.4629 16.6289 32.2146 18.2893 32.2146 20.0074C32.2146 24.0021 29.3057 26.9452 23.2098 27.5569C24.8874 28.4056 26.1111 30.7903 26.1111 32.587V36.6365C26.1111 36.7905 26.076 36.9016 26.0576 37.0334C33.2015 34.6058 38.3333 28.0294 38.3333 20.274C38.3333 10.4583 30.1246 2.5 20 2.5Z" fill="#F05454"/>
</svg>
