<svg width="24" height="24" viewBox="0 0 24 24" fill="none" xmlns="http://www.w3.org/2000/svg">
<path d="M4.49993 10C4.49993 9.6 5.83326 5.33333 6.99993 4C8.99993 4.5 18.0999 5 18.4999 5C18.8999 5 18.6666 9.33333 20.4999 10.5L17.9998 21C17.9998 21 15.9998 22.5 12.4998 22.5H8.99982L4.4998 19C2.83314 16.5 4.49993 10.4 4.49993 10Z" fill="#F5F5F5"/>
<path d="M12 1.5C5.92525 1.5 1 6.27499 1 12.1644C1 17.1616 4.54933 21.3429 9.33433 22.5C9.283 22.356 9.25 22.189 9.25 21.9819V20.1592C8.80358 20.1592 8.05558 20.1592 7.86767 20.1592C7.11508 20.1592 6.44592 19.8455 6.12142 19.2625C5.76117 18.6146 5.69883 17.6237 4.806 17.0176C4.54108 16.8159 4.74275 16.5857 5.048 16.6168C5.61175 16.7714 6.07925 17.1465 6.51925 17.7028C6.95742 18.26 7.16367 18.3862 7.98225 18.3862C8.37917 18.3862 8.97317 18.364 9.53233 18.2787C9.833 17.5384 10.3527 16.8567 10.988 16.535C7.325 16.1698 5.57692 14.403 5.57692 12.0044C5.57692 10.9718 6.03067 9.97287 6.80158 9.13127C6.54858 8.2959 6.2305 6.59226 6.89875 5.9435C8.54692 5.9435 9.54333 6.97973 9.78258 7.25967C10.6039 6.98684 11.5059 6.8322 12.4538 6.8322C13.4034 6.8322 14.3091 6.98684 15.1322 7.26145C15.3688 6.98328 16.3661 5.9435 18.0179 5.9435C18.6889 6.59314 18.3672 8.30389 18.1114 9.1375C18.8778 9.97732 19.3288 10.9736 19.3288 12.0044C19.3288 14.4013 17.5834 16.1671 13.9259 16.5342C14.9324 17.0434 15.6667 18.4742 15.6667 19.5522V21.9819C15.6667 22.0743 15.6456 22.141 15.6346 22.2201C19.9209 20.7635 23 16.8176 23 12.1644C23 6.27499 18.0748 1.5 12 1.5Z" fill="#F05454"/>
</svg>
