<svg width="24" height="25" viewBox="0 0 24 25" fill="none" xmlns="http://www.w3.org/2000/svg">
<path d="M19.6 5.85H10.936L10.1 3H4.4C3.355 3 2.5 3.855 2.5 4.9V17.25C2.5 18.295 3.355 19.15 4.4 19.15H11.05L12 22H19.6C20.645 22 21.5 21.145 21.5 20.1V7.75C21.5 6.705 20.645 5.85 19.6 5.85ZM7.4115 14.9605C5.274 14.9605 3.526 13.222 3.526 11.075C3.526 8.928 5.2645 7.1895 7.4115 7.1895C8.3995 7.1895 9.302 7.541 10.0145 8.206L10.081 8.263L8.9125 9.384L8.8555 9.3365C8.58 9.08 8.1145 8.776 7.4115 8.776C6.167 8.776 5.1505 9.8115 5.1505 11.075C5.1505 12.3385 6.167 13.374 7.4115 13.374C8.713 13.374 9.2735 12.5475 9.4255 11.987H7.326V10.5145H11.0785L11.088 10.581C11.126 10.7805 11.1355 10.961 11.1355 11.1605C11.1355 13.393 9.606 14.9605 7.4115 14.9605ZM13.14 13.336C13.4535 13.906 13.843 14.457 14.2705 14.951L13.7575 15.4545L13.14 13.336ZM13.8715 12.614H12.931L12.6365 11.626H16.427C16.427 11.626 16.104 12.8705 14.945 14.229C14.451 13.64 14.0995 13.0605 13.8715 12.614ZM20.55 20.1C20.55 20.6225 20.1225 21.05 19.6 21.05H12.95L14.85 19.15L14.0805 16.5185L14.9545 15.6445L17.5005 18.2L18.194 17.5065L15.6195 14.9605C16.4745 13.982 17.1395 12.823 17.4435 11.626H18.65V10.638H15.192V9.65H14.204V10.638H12.342L11.221 6.8H19.6C20.1225 6.8 20.55 7.2275 20.55 7.75V20.1Z" fill="#F5F5F5"/>
</svg>
