<svg width="24" height="24" viewBox="0 0 24 24" fill="none" xmlns="http://www.w3.org/2000/svg">
<g clip-path="url(#clip0_916_218)">
<g clip-path="url(#clip1_916_218)">
<path fill-rule="evenodd" clip-rule="evenodd" d="M3.09467 3.09467C4.42914 1.7602 6.42603 1.25 9 1.25H15C17.574 1.25 19.5709 1.7602 20.9053 3.09467C22.2398 4.42914 22.75 6.42603 22.75 9V15C22.75 17.574 22.2398 19.5709 20.9053 20.9053C19.5709 22.2398 17.574 22.75 15 22.75H9C6.42603 22.75 4.42914 22.2398 3.09467 20.9053C1.7602 19.5709 1.25 17.574 1.25 15V9C1.25 6.42603 1.7602 4.42914 3.09467 3.09467Z" fill="#F05454"/>
<path fill-rule="evenodd" clip-rule="evenodd" d="M9 9.75C9.52467 9.75 9.95 10.1753 9.95 10.7V16C9.95 16.5247 9.52467 16.95 9 16.95C8.47533 16.95 8.05 16.5247 8.05 16V10.7C8.05 10.1753 8.47533 9.75 9 9.75Z" fill="white"/>
<path fill-rule="evenodd" clip-rule="evenodd" d="M9.04004 9.23389C8.3773 9.23389 7.84004 8.69663 7.84004 8.03389C7.84004 7.37114 8.3773 6.83389 9.04004 6.83389C9.70278 6.83389 10.24 7.37114 10.24 8.03389C10.24 8.69663 9.70278 9.23389 9.04004 9.23389Z" fill="white"/>
<path fill-rule="evenodd" clip-rule="evenodd" d="M16 16.9497C15.4753 16.9497 15.05 16.5244 15.05 15.9997L15.05 12.9997C15.05 12.4244 14.5753 11.9497 14 11.9497C13.4247 11.9497 12.95 12.4244 12.95 12.9997L12.95 15.9997C12.95 16.5244 12.5247 16.9497 12 16.9497C11.4753 16.9497 11.05 16.5244 11.05 15.9997L11.05 12.9997C11.05 11.375 12.3753 10.0497 14 10.0497C15.6247 10.0497 16.95 11.375 16.95 12.9997L16.95 15.9997C16.95 16.5244 16.5247 16.9497 16 16.9497Z" fill="white"/>
</g>
</g>
<defs>
<clipPath id="clip0_916_218">
<rect width="24" height="24" fill="white"/>
</clipPath>
<clipPath id="clip1_916_218">
<rect width="24" height="24" fill="white"/>
</clipPath>
</defs>
</svg>
