<svg width="41" height="41" viewBox="0 0 41 41" fill="none" xmlns="http://www.w3.org/2000/svg">
<g clip-path="url(#clip0_1104_1714)">
<path fill-rule="evenodd" clip-rule="evenodd" d="M5.65779 5.65795C7.88191 3.43383 11.2101 2.5835 15.5 2.5835H25.5C29.79 2.5835 33.1181 3.43383 35.3422 5.65795C37.5663 7.88206 38.4167 11.2102 38.4167 15.5002V25.5002C38.4167 29.7901 37.5663 33.1183 35.3422 35.3424C33.1181 37.5665 29.79 38.4168 25.5 38.4168H15.5C11.2101 38.4168 7.88191 37.5665 5.65779 35.3424C3.43368 33.1183 2.58334 29.7901 2.58334 25.5002V15.5002C2.58334 11.2102 3.43368 7.88206 5.65779 5.65795Z" fill="#F05454"/>
<path fill-rule="evenodd" clip-rule="evenodd" d="M15.5 16.7505C16.3745 16.7505 17.0834 17.4594 17.0834 18.3338V27.1672C17.0834 28.0416 16.3745 28.7505 15.5 28.7505C14.6256 28.7505 13.9167 28.0416 13.9167 27.1672V18.3338C13.9167 17.4594 14.6256 16.7505 15.5 16.7505Z" fill="white"/>
<path fill-rule="evenodd" clip-rule="evenodd" d="M15.5667 15.8906C14.4622 15.8906 13.5667 14.9952 13.5667 13.8906C13.5667 12.7861 14.4622 11.8906 15.5667 11.8906C16.6713 11.8906 17.5667 12.7861 17.5667 13.8906C17.5667 14.9952 16.6713 15.8906 15.5667 15.8906Z" fill="white"/>
<path fill-rule="evenodd" clip-rule="evenodd" d="M27.1667 28.7505C26.2922 28.7505 25.5833 28.0416 25.5833 27.1672L25.5833 22.1672C25.5833 21.2083 24.7922 20.4172 23.8333 20.4172C22.8744 20.4172 22.0833 21.2083 22.0833 22.1672L22.0833 27.1672C22.0833 28.0416 21.3745 28.7505 20.5 28.7505C19.6255 28.7505 18.9167 28.0416 18.9167 27.1672L18.9167 22.1672C18.9167 19.4594 21.1255 17.2505 23.8333 17.2505C26.5411 17.2505 28.75 19.4594 28.75 22.1672L28.75 27.1672C28.75 28.0416 28.0411 28.7505 27.1667 28.7505Z" fill="white"/>
</g>
<defs>
<clipPath id="clip0_1104_1714">
<rect width="40" height="40" fill="white" transform="translate(0.5 0.5)"/>
</clipPath>
</defs>
</svg>
