<svg width="24" height="25" viewBox="0 0 24 25" fill="none" xmlns="http://www.w3.org/2000/svg">
<path d="M6.392 5.47814L21.71 4.69314L18.33 2.76714C17.495 2.19914 16.484 1.92914 15.486 1.99914L3.397 2.48314L6.392 5.47814ZM5 6.91414L2 3.91414V17.3941C2 17.9901 2.174 18.5651 2.504 19.0581L5 22.8031V6.91414ZM7 7.45014V23.4391L22.062 22.4981C22.589 22.4651 23 22.0281 23 21.5001V6.63014L7 7.45014ZM20.458 10.3401C19.927 10.4501 19.927 10.4501 19.927 10.9851C19.927 13.8591 19.925 16.7331 19.932 19.6071C19.932 19.8071 19.878 19.9291 19.688 19.9891C19.347 20.0971 19.013 20.2371 18.665 20.3101C18.108 20.4261 17.618 20.2731 17.284 19.7951C16.823 19.1361 16.374 18.4691 15.936 17.7951C14.918 16.2281 13.909 14.6541 12.897 13.0831C12.875 13.0491 12.85 13.0181 12.792 12.9411C12.78 13.0481 12.767 13.1121 12.767 13.1761C12.766 15.1321 12.768 17.0891 12.762 19.0451C12.761 19.2181 12.817 19.2881 12.984 19.3201C13.359 19.3921 13.731 19.4821 14.101 19.5641C14.056 19.9701 13.831 20.2221 13.415 20.2911C13.11 20.3411 12.798 20.3481 12.488 20.3661C11.738 20.4111 10.986 20.4451 10.237 20.4981C10.019 20.5141 9.975 20.4231 10.012 20.2451C10.058 20.0231 10.171 19.8621 10.411 19.8041C10.647 19.7471 10.88 19.6731 11.114 19.6071C11.114 16.7931 11.114 13.9941 11.114 11.1751C10.758 11.1441 10.41 11.1131 10.065 11.0831C9.928 10.5991 10.23 10.1521 10.741 10.1111C11.661 10.0371 12.586 10.0081 13.503 9.90714C13.895 9.86314 14.079 10.0071 14.275 10.3071C15.573 12.2941 16.888 14.2701 18.198 16.2491C18.246 16.3221 18.299 16.3931 18.393 16.5281C18.393 14.5271 18.393 12.6001 18.393 10.6581C18.073 10.6211 17.767 10.5771 17.459 10.5541C17.291 10.5421 17.25 10.4661 17.269 10.3181C17.31 10.0011 17.559 9.71314 17.893 9.68814C18.909 9.61214 19.928 9.56014 20.941 9.50014C21.088 10.0001 20.946 10.2391 20.458 10.3401Z" fill="#F05454"/>
</svg>
