<svg width="41" height="41" viewBox="0 0 41 41" fill="none" xmlns="http://www.w3.org/2000/svg">
<path d="M27.1666 3.7832H13.8333C7.16665 3.7832 3.83331 7.11654 3.83331 13.7832V22.1165C3.83331 30.4499 7.16665 32.1165 13.8333 32.1165H14.6666C15.1333 32.1165 15.7333 32.4165 16 32.7832L18.5 36.1165C19.6 37.5832 21.4 37.5832 22.5 36.1165L25 32.7832C25.3166 32.3665 25.8166 32.1165 26.3333 32.1165H27.1666C33.8333 32.1165 37.1666 28.7832 37.1666 22.1165V13.7832C37.1666 7.11654 33.8333 3.7832 27.1666 3.7832ZM14.7166 20.7832C15.2 21.2665 15.2 22.0665 14.7166 22.5499C14.4666 22.7999 14.15 22.9165 13.8333 22.9165C13.5166 22.9165 13.2 22.7999 12.95 22.5499L9.61665 19.2165C9.13331 18.7332 9.13331 17.9332 9.61665 17.4499L12.95 14.1165C13.4333 13.6332 14.2333 13.6332 14.7166 14.1165C15.2 14.5999 15.2 15.3999 14.7166 15.8832L12.2666 18.3332L14.7166 20.7832ZM23.3166 14.9332L19.9833 22.7165C19.7833 23.1832 19.3166 23.4665 18.8333 23.4665C18.6666 23.4665 18.5 23.4332 18.3333 23.3665C17.7 23.0999 17.4 22.3665 17.6833 21.7165L21.0166 13.9332C21.2833 13.2999 22.0166 12.9999 22.6666 13.2832C23.3 13.5665 23.5833 14.2999 23.3166 14.9332ZM31.3833 19.2165L28.05 22.5499C27.8 22.7999 27.4833 22.9165 27.1666 22.9165C26.85 22.9165 26.5333 22.7999 26.2833 22.5499C25.8 22.0665 25.8 21.2665 26.2833 20.7832L28.7333 18.3332L26.2833 15.8832C25.8 15.3999 25.8 14.5999 26.2833 14.1165C26.7666 13.6332 27.5666 13.6332 28.05 14.1165L31.3833 17.4499C31.8666 17.9332 31.8666 18.7332 31.3833 19.2165Z" fill="#F5F5F5"/>
</svg>
