<svg width="24" height="25" viewBox="0 0 24 25" fill="none" xmlns="http://www.w3.org/2000/svg">
<path d="M21.8593 4.34296L18.0593 3.04296C17.8073 2.95656 17.5257 3.00216 17.3137 3.16456L8.7473 9.73256L4.4137 7.11576C4.1913 6.98056 3.9177 6.96216 3.6793 7.06696L2.0793 7.76696C1.7881 7.89416 1.6001 8.18216 1.6001 8.49976V16.4998C1.6001 16.8174 1.7881 17.1054 2.0793 17.2326L3.6793 17.9326C3.9169 18.0374 4.1905 18.0182 4.4137 17.8838L8.7465 15.267L17.3129 21.835C17.4545 21.9438 17.6265 21.9998 17.7993 21.9998C17.8865 21.9998 17.9737 21.9854 18.0585 21.9566L21.8585 20.6566C22.1825 20.5462 22.4001 20.2422 22.4001 19.8998V5.09976C22.4001 4.75736 22.1825 4.45336 21.8593 4.34296ZM4.8001 13.9126V11.087L7.1385 12.4998L4.8001 13.9126ZM17.6001 16.2734L12.0305 12.4998L17.6001 8.72616V16.2734Z" fill="#F05454"/>
</svg>
